<?xml version="1.0" encoding="UTF-8" standalone="no"?>
<svg
   xmlns:dc="http://purl.org/dc/elements/1.1/"
   xmlns:cc="http://creativecommons.org/ns#"
   xmlns:rdf="http://www.w3.org/1999/02/22-rdf-syntax-ns#"
   xmlns:svg="http://www.w3.org/2000/svg"
   xmlns="http://www.w3.org/2000/svg"
   xmlns:sodipodi="http://sodipodi.sourceforge.net/DTD/sodipodi-0.dtd"
   xmlns:inkscape="http://www.inkscape.org/namespaces/inkscape"
   inkscape:version="1.0 (6e3e5246a0, 2020-05-07)"
   sodipodi:docname="sunat-logo.svg"
   id="svg118"
   version="1.1"
   viewBox="0 0 110.50043 29.248426"
   height="29.248426"
   width="110.50043">
  <metadata
     id="metadata124">
    <rdf:RDF>
      <cc:Work
         rdf:about="">
        <dc:format>image/svg+xml</dc:format>
        <dc:type
           rdf:resource="http://purl.org/dc/dcmitype/StillImage" />
        <dc:title></dc:title>
      </cc:Work>
    </rdf:RDF>
  </metadata>
  <defs
     id="defs122" />
  <sodipodi:namedview
     inkscape:current-layer="svg118"
     inkscape:window-maximized="1"
     inkscape:window-y="28"
     inkscape:window-x="0"
     inkscape:cy="16.132311"
     inkscape:cx="59.297744"
     inkscape:zoom="7.8590604"
     fit-margin-bottom="0"
     fit-margin-right="0"
     fit-margin-left="0"
     fit-margin-top="0"
     showgrid="false"
     id="namedview120"
     inkscape:window-height="686"
     inkscape:window-width="1366"
     inkscape:pageshadow="2"
     inkscape:pageopacity="0"
     guidetolerance="10"
     gridtolerance="10"
     objecttolerance="10"
     borderopacity="1"
     bordercolor="#666666"
     pagecolor="#ffffff" />
  <g
     transform="translate(8.6873582e-5,-0.80321809)"
     id="g116">
    <g
       id="g114">
      <g
         id="g88">
        <path
           id="path86"
           d="m 20.432,20.14 c 0.13,-0.73 0.273,-1.456 0.391,-2.187 0.284,-1.761 -0.653,-3.351 -2.379,-3.746 -1.423,-0.326 -2.896,-0.429 -4.346,-0.64 C 12.78,13.374 11.418,13.321 10.159,12.932 8.23,12.335 6.796,11.132 6.569,8.927 6.458,7.852 6.735,6.867 7.464,6.095 c 1.575,-1.667 3.207,-3.28 4.824,-4.908 0.537,-0.54 1.38,-0.496 1.924,0.043 1.627,1.614 3.274,3.209 4.898,4.826 1.076,1.071 2.116,2.178 3.19,3.25 1.007,1.006 2.064,1.962 3.044,2.993 0.43,0.45 1.019,0.797 1.116,1.533 0.131,0.983 -0.607,1.412 -1.161,1.95 -1.114,1.082 -2.253,2.138 -3.385,3.202 -0.451,0.424 -0.91,0.84 -1.365,1.26 l -0.117,-0.105 z"
           fill="#ae0d41" />
      </g>
      <g
         id="g92">
        <path
           id="path90"
           d="m 6.07,10.565 c -0.113,0.588 -0.233,1.045 -0.28,1.51 a 16.83,16.83 0 0 0 -0.101,1.94 c 0.025,1.582 1.362,2.491 2.629,2.836 1.737,0.472 3.52,0.546 5.307,0.601 1.55,0.048 3.004,0.46 4.306,1.314 1.278,0.838 1.988,2.084 2.063,3.567 0.047,0.92 -0.397,1.814 -1.031,2.526 -0.735,0.824 -1.513,1.61 -2.289,2.396 -0.84,0.852 -1.698,1.69 -2.554,2.526 -0.339,0.331 -1.327,0.374 -1.671,0.042 C 11.519,28.923 10.609,28 9.694,27.083 8.948,26.337 8.206,25.587 7.462,24.839 6.353,23.724 5.25,22.604 4.136,21.495 3.087,20.45 2.024,19.422 0.973,18.38 A 8.123,8.123 0 0 1 0.227,17.561 1.14,1.14 0 0 1 0.294,16.114 c 0.466,-0.524 0.98,-1.006 1.488,-1.49 1.39,-1.325 2.789,-2.641 4.287,-4.059 z"
           fill="#0163ac" />
      </g>
      <g
         id="g96">
        <path
           id="path94"
           d="M 64,15.398 V 9.7 c -0.002,-0.85 0.189,-1.085 1.03,-1.239 0.348,-0.063 0.696,-0.132 1.047,-0.168 1.51,-0.156 2.586,0.521 3.51,1.68 0.956,1.197 2.047,2.287 3.078,3.425 0.446,0.493 0.87,1.008 1.344,1.473 0.156,0.153 0.494,0.302 0.646,0.231 0.165,-0.077 0.292,-0.41 0.295,-0.633 0.025,-1.564 0.01,-3.129 0.014,-4.693 0.002,-0.968 0.194,-1.132 1.126,-1.324 a 5.125,5.125 0 0 1 2.148,0.012 c 0.833,0.175 1.085,0.416 1.084,1.263 0,2.421 -0.005,4.842 -0.006,7.263 0,1.34 0.004,2.681 0.004,4.022 0,0.991 -0.287,1.397 -1.279,1.462 -0.802,0.052 -1.622,-0.052 -2.424,-0.162 -0.278,-0.038 -0.579,-0.254 -0.777,-0.472 -1.806,-1.985 -3.591,-3.987 -5.383,-5.984 -0.037,-0.041 -0.066,-0.1 -0.112,-0.123 -0.22,-0.106 -0.535,-0.343 -0.646,-0.271 -0.184,0.119 -0.326,0.438 -0.33,0.676 -0.029,1.638 -0.016,3.277 -0.019,4.916 -10e-4,0.956 -0.093,1.207 -1.028,1.34 -0.837,0.119 -1.716,-0.009 -2.573,-0.08 -0.655,-0.056 -0.748,-0.561 -0.746,-1.105 0.005,-1.583 0.004,-3.166 0.004,-4.75 V 15.4 Z"
           fill="#0163ac" />
      </g>
      <g
         id="g100">
        <path
           id="path98"
           d="m 37.307,22.775 c -2.954,-0.09 -5.18,-0.49 -7.287,-1.457 -1.046,-0.48 -1.187,-1.366 -0.321,-2.136 a 2.51,2.51 0 0 0 0.196,-0.197 c 0.805,-0.895 1.344,-1.015 2.427,-0.482 1.533,0.755 3.15,1.129 4.855,1.057 0.454,-0.02 0.93,-0.114 1.343,-0.295 0.231,-0.102 0.493,-0.457 0.487,-0.69 C 39,18.31 38.759,17.893 38.531,17.82 A 29.571,29.571 0 0 0 35.257,16.956 C 33.814,16.67 32.377,16.389 31.07,15.68 28.656,14.37 28.77,11.311 30.797,9.781 32.49,8.503 34.478,8.235 36.502,8.315 c 1.382,0.054 2.762,0.303 4.128,0.55 0.61,0.109 1.198,0.393 1.77,0.656 0.487,0.223 0.623,1.117 0.238,1.628 a 6.165,6.165 0 0 1 -1.063,1.127 c -0.511,0.406 -1.106,0.27 -1.642,0.016 a 8.58,8.58 0 0 0 -4.771,-0.783 c -0.49,0.057 -0.938,0.49 -0.928,0.903 0.013,0.505 0.355,0.77 0.797,0.873 1.355,0.317 2.717,0.6 4.073,0.91 1.344,0.305 2.626,0.722 3.784,1.538 0.832,0.586 1.302,2.365 1.003,3.397 -0.497,1.71 -1.78,2.585 -3.335,3.043 -1.252,0.37 -2.578,0.484 -3.249,0.602 z"
           fill="#0163ac" />
      </g>
      <g
         id="g104">
        <path
           id="path102"
           d="m 56.777,13.07 c 0,-1.156 -0.004,-2.31 0.002,-3.465 0.004,-0.746 0.235,-0.958 0.95,-1.135 0.895,-0.221 1.766,-0.195 2.651,0.018 0.612,0.147 0.887,0.397 0.884,1.028 -0.013,2.681 0.095,5.374 -0.122,8.04 -0.184,2.262 -1.602,3.89 -3.882,4.608 -1.398,0.439 -2.858,0.714 -4.341,0.55 -1.627,-0.18 -3.26,-0.415 -4.611,-1.45 -1.346,-1.03 -2.049,-2.473 -2.11,-4.128 -0.092,-2.549 -0.045,-5.103 -0.038,-7.654 0,-0.52 0.276,-0.853 0.815,-0.983 0.924,-0.223 1.835,-0.245 2.761,-0.018 0.709,0.173 0.905,0.36 0.908,1.11 0.01,2.141 -0.03,4.284 0.018,6.425 0.015,0.65 0.126,1.36 0.418,1.928 0.776,1.507 3.01,1.626 4.198,1.006 1.077,-0.562 1.5,-1.475 1.498,-2.64 -0.002,-1.08 0,-2.16 0,-3.24 z"
           fill="#0163ac" />
      </g>
      <g
         id="g108">
        <path
           id="path106"
           d="m 89.775,16.973 c -0.391,0 -0.784,0.025 -1.172,-0.007 -0.408,-0.034 -0.567,-0.309 -0.41,-0.671 0.369,-0.85 0.76,-1.691 1.173,-2.521 0.191,-0.385 0.63,-0.379 0.821,0.012 0.408,0.833 0.796,1.677 1.158,2.53 0.168,0.395 -0.105,0.609 -0.454,0.652 -0.367,0.045 -0.744,0.01 -1.116,0.01 z m 6.25,5.57 c 0.334,-0.017 0.671,-0.011 1.003,-0.055 1.12,-0.15 1.49,-0.84 0.992,-1.853 -0.881,-1.797 -1.771,-3.59 -2.659,-5.384 -0.823,-1.663 -1.74,-3.287 -2.442,-4.999 -0.528,-1.284 -1.2,-2.035 -2.69,-2.104 -1.706,-0.078 -2.47,0.164 -3.117,1.442 -1.002,1.984 -2.011,3.964 -2.998,5.955 -0.883,1.779 -1.738,3.57 -2.608,5.355 -0.306,0.63 -0.113,1.175 0.564,1.422 0.918,0.334 1.865,0.299 2.794,0.052 0.286,-0.077 0.62,-0.242 0.778,-0.473 0.278,-0.406 0.463,-0.884 0.637,-1.35 0.17,-0.458 0.428,-0.683 0.946,-0.675 1.582,0.024 3.166,0.04 4.747,-0.01 0.677,-0.02 1.107,0.196 1.354,0.81 0.07,0.172 0.161,0.337 0.212,0.514 0.27,0.946 0.942,1.316 1.872,1.327 0.205,0.002 0.41,0.017 0.614,0.026 z"
           fill="#0163ac" />
      </g>
      <g
         id="g112">
        <path
           id="path110"
           d="m 103.362,8.456 c 1.9,0 3.799,-0.002 5.699,0 1.129,0.001 1.415,0.284 1.437,1.422 0.005,0.26 0.004,0.523 -0.023,0.782 -0.07,0.666 -0.428,0.977 -1.109,0.983 -0.968,0.008 -1.936,0.017 -2.904,0.018 -0.766,0.001 -0.97,0.19 -0.973,0.942 -0.006,2.719 -0.04,5.438 0,8.156 0.022,1.548 -0.352,1.524 -1.543,1.704 -0.692,0.105 -1.445,-0.04 -2.145,-0.191 -0.544,-0.117 -0.758,-0.578 -0.755,-1.155 0.015,-2.812 0.011,-5.625 0.007,-8.437 0,-0.944 -0.074,-1.012 -1.022,-1.015 -0.875,-0.003 -1.75,0.004 -2.625,-0.003 -0.813,-0.006 -1.128,-0.24 -1.23,-1.045 -0.06,-0.47 -0.025,-0.967 0.058,-1.436 0.102,-0.576 0.557,-0.73 1.094,-0.728 1.397,0.006 2.793,0.004 4.19,0.005 h 1.844 z"
           fill="#0163ac" />
      </g>
    </g>
  </g>
</svg>
