<?xml version="1.0" standalone="no"?>
<!DOCTYPE svg PUBLIC "-//W3C//DTD SVG 20010904//EN"
 "http://www.w3.org/TR/2001/REC-SVG-20010904/DTD/svg10.dtd">
<svg version="1.0" xmlns="http://www.w3.org/2000/svg"
 width="700.000000pt" height="700.000000pt" viewBox="0 0 700.000000 700.000000"
 preserveAspectRatio="xMidYMid meet">
<metadata>
Created by potrace 1.11, written by Peter Selinger 2001-2013
</metadata>
<g transform="translate(0.000000,700.000000) scale(0.100000,-0.100000)"
fill="#000000" stroke="none">
<path d="M0 3500 l0 -3500 3500 0 3500 0 0 3500 0 3500 -3500 0 -3500 0 0
-3500z m3850 2449 c198 -24 363 -72 539 -155 263 -125 483 -317 656 -574 77
-115 203 -373 251 -514 21 -63 36 -117 34 -119 -3 -3 -214 -55 -470 -117 -256
-62 -470 -114 -475 -117 -6 -2 -23 36 -39 84 -82 254 -229 478 -381 583 -64
44 -179 95 -243 109 -133 28 -354 2 -483 -57 -330 -149 -517 -499 -589 -1107
-6 -49 -14 -202 -17 -340 -15 -666 91 -1143 323 -1451 150 -199 388 -314 649
-314 119 0 213 21 310 69 217 108 378 322 512 681 19 52 39 99 44 104 4 5 67
-3 146 -18 76 -15 269 -52 428 -82 160 -30 313 -59 342 -65 l52 -10 -40 -112
c-280 -783 -734 -1225 -1394 -1356 -318 -63 -752 -42 -1080 53 -707 203 -1158
779 -1304 1661 -89 537 -75 1177 35 1669 203 907 753 1408 1644 1499 83 9 473
6 550 -4z"/>
</g>
</svg>
