<?xml version="1.0" standalone="no"?>
<!DOCTYPE svg PUBLIC "-//W3C//DTD SVG 20010904//EN"
 "http://www.w3.org/TR/2001/REC-SVG-20010904/DTD/svg10.dtd">
<svg version="1.0" xmlns="http://www.w3.org/2000/svg"
 width="700.000000pt" height="700.000000pt" viewBox="0 0 700.000000 700.000000"
 preserveAspectRatio="xMidYMid meet">
<metadata>
Created by potrace 1.11, written by Peter Selinger 2001-2013
</metadata>
<g transform="translate(0.000000,700.000000) scale(0.100000,-0.100000)"
fill="#000000" stroke="none">
<path d="M0 3500 l0 -3500 3500 0 3500 0 0 3500 0 3500 -3500 0 -3500 0 0
-3500z m3455 2147 c592 -92 986 -318 1257 -722 160 -239 286 -581 332 -905 69
-485 34 -1030 -90 -1406 -214 -645 -644 -1045 -1299 -1205 -256 -62 -365 -73
-745 -74 -271 0 -379 4 -505 18 -151 18 -429 61 -467 73 -17 5 -18 113 -18
2074 l0 2068 53 12 c105 23 376 59 522 70 83 6 168 12 190 14 110 10 676 -3
770 -17z"/>
<path d="M2970 4934 c-30 -2 -70 -6 -87 -9 l-33 -6 0 -1423 c0 -1289 1 -1424
16 -1430 25 -9 220 -7 319 4 357 41 628 228 788 545 173 345 215 1051 91 1550
-99 398 -330 656 -663 742 -97 24 -292 37 -431 27z"/>
</g>
</svg>
